<svg width="1920" height="1080" viewBox="0 0 1920 1080" fill="none" xmlns="http://www.w3.org/2000/svg">
<path d="M1920 1080H0V0H1920V1080ZM606.845 380.312C588.208 380.312 572.022 390.022 558.285 409.441C544.549 428.666 533.905 455.658 526.354 490.418C518.803 524.984 515.027 565.376 515.027 611.593C515.027 659.169 518.763 700.241 526.233 734.807C533.784 769.178 544.548 795.686 558.525 814.328C572.583 832.776 589.292 842 608.651 842C624.798 842 639.016 836.077 651.307 824.231C663.597 812.192 673.518 795.394 681.069 773.839C688.701 752.09 693.64 726.554 695.89 697.231L641.788 693.444C640.262 703.348 637.972 711.698 634.92 718.495C631.867 725.292 628.212 730.437 623.954 733.933C619.697 737.428 614.958 739.176 609.736 739.176C602.185 739.176 595.678 735.39 590.216 727.816C584.753 720.243 580.537 709.659 577.564 696.066C574.592 682.279 573.105 666.258 573.105 648.004V644.217H696.492V608.681C696.492 571.979 694.283 539.451 689.865 511.1C685.447 482.554 679.262 458.571 671.31 439.152C663.357 419.733 653.918 405.072 642.993 395.168C632.068 385.264 620.019 380.313 606.845 380.312ZM1413.05 380.312C1394.41 380.313 1378.22 390.022 1364.49 409.441C1350.75 428.666 1340.11 455.658 1332.56 490.418C1325 524.984 1321.23 565.376 1321.23 611.593C1321.23 659.169 1324.96 700.241 1332.43 734.807C1339.99 769.178 1350.75 795.686 1364.73 814.328C1378.79 832.776 1395.49 842 1414.85 842C1431 842 1445.22 836.077 1457.51 824.231C1469.8 812.192 1479.72 795.394 1487.27 773.839C1494.9 752.09 1499.84 726.554 1502.09 697.231L1447.99 693.444C1446.46 703.348 1444.17 711.698 1441.12 718.495C1438.07 725.292 1434.41 730.437 1430.16 733.933C1425.9 737.428 1421.16 739.176 1415.94 739.176C1408.39 739.176 1401.88 735.389 1396.42 727.816C1390.96 720.243 1386.74 709.66 1383.77 696.066C1380.79 682.279 1379.31 666.258 1379.31 648.004V644.217H1502.69V608.681C1502.69 571.979 1500.49 539.451 1496.07 511.1C1491.65 482.554 1485.46 458.571 1477.51 439.152C1469.56 419.733 1460.12 405.072 1449.19 395.168C1438.27 385.264 1426.22 380.312 1413.05 380.312ZM726.586 386.138V671.307C726.666 705.096 729.357 734.613 734.659 759.857C739.961 784.908 747.392 804.425 756.951 818.406C766.51 832.388 777.596 839.378 790.207 839.378C804.104 839.378 815.954 831.417 825.754 815.493C835.634 799.375 842.623 777.626 846.72 750.245H848.647V833.553H904.798V386.138H845.997V640.431C845.997 657.713 844.591 672.472 841.779 684.706C839.048 696.746 835.313 705.97 830.573 712.378C825.914 718.592 820.652 721.699 814.788 721.699C805.791 721.699 798.682 714.708 793.461 700.727C788.24 686.745 785.588 667.617 785.508 643.344V386.138H726.586ZM1532.79 386.138V671.307C1532.87 705.096 1535.56 734.613 1540.86 759.857C1546.16 784.908 1553.59 804.425 1563.15 818.406C1572.71 832.388 1583.8 839.378 1596.41 839.378C1610.31 839.378 1622.15 831.417 1631.96 815.493C1641.84 799.375 1648.82 777.626 1652.92 750.245H1654.85V833.553H1711V386.138H1652.2V640.431C1652.2 657.713 1650.79 672.472 1647.98 684.706C1645.25 696.746 1641.51 705.97 1636.78 712.378C1632.12 718.592 1626.85 721.699 1620.99 721.699C1611.99 721.699 1604.88 714.708 1599.66 700.727C1594.44 686.745 1591.79 667.617 1591.71 643.344V386.138H1532.79ZM209 237V833.553H267.078V465.076H269.127L328.41 829.766H365.523L424.807 467.115H426.854V833.553H484.934V237H411.07L348.413 606.35H345.521L282.863 237H209ZM1015.2 237V833.553H1073.28V465.076H1075.33L1134.61 829.766H1171.72L1231.01 467.115H1233.06V833.553H1291.13V237H1217.27L1154.61 606.35H1151.72L1089.07 237H1015.2ZM608.049 483.137C614.556 483.137 620.3 486.534 625.28 493.331C630.341 499.933 634.317 509.158 637.209 521.003C640.101 532.849 641.587 546.345 641.667 561.492H573.143C573.435 547.092 575.029 534.178 577.926 522.751C580.978 510.517 585.115 500.905 590.337 493.914C595.558 486.729 601.462 483.137 608.049 483.137ZM1414.25 483.137C1420.76 483.137 1426.5 486.535 1431.48 493.331C1436.54 499.933 1440.52 509.157 1443.41 521.003C1446.3 532.849 1447.79 546.345 1447.87 561.492H1379.34C1379.64 547.092 1381.23 534.178 1384.13 522.751C1387.18 510.517 1391.32 500.905 1396.54 493.914C1401.76 486.729 1407.66 483.137 1414.25 483.137Z" fill="black"/>
</svg>
